<?xml version="1.0" encoding="UTF-8" standalone="no"?>
<svg
   viewBox="0 0 512 512"
   fill="none"
   version="1.1"
   id="svg34"
   sodipodi:docname="meeple3.svg"
   inkscape:version="1.4.4 (dcaf3e7d9e, 2026-05-05)"
   xmlns:inkscape="http://www.inkscape.org/namespaces/inkscape"
   xmlns:sodipodi="http://sodipodi.sourceforge.net/DTD/sodipodi-0.dtd"
   xmlns="http://www.w3.org/2000/svg"
   xmlns:svg="http://www.w3.org/2000/svg">
  <sodipodi:namedview
     id="namedview34"
     pagecolor="#ffffff"
     bordercolor="#666666"
     borderopacity="1.0"
     inkscape:showpageshadow="2"
     inkscape:pageopacity="0.0"
     inkscape:pagecheckerboard="0"
     inkscape:deskcolor="#d1d1d1"
     inkscape:zoom="1.7890625"
     inkscape:cx="255.72052"
     inkscape:cy="256"
     inkscape:window-width="2048"
     inkscape:window-height="1119"
     inkscape:window-x="0"
     inkscape:window-y="0"
     inkscape:window-maximized="1"
     inkscape:current-layer="svg34" />
  <defs
     id="defs8">
    <!-- Background Gradient -->
    <linearGradient
       id="bgGrad"
       x1="0%"
       y1="0%"
       x2="100%"
       y2="100%">
      <stop
         offset="0%"
         stop-color="#F59E0B"
         id="stop1" />
      <stop
         offset="100%"
         stop-color="#EA580C"
         id="stop2" />
    </linearGradient>
    <!-- Gloss Overlay Gradient -->
    <linearGradient
       id="glossGrad"
       x1="0%"
       y1="0%"
       x2="0%"
       y2="100%">
      <stop
         offset="0%"
         stop-color="#FFFFFF"
         stop-opacity="0.25"
         id="stop3" />
      <stop
         offset="35%"
         stop-color="#FFFFFF"
         stop-opacity="0.05"
         id="stop4" />
      <stop
         offset="100%"
         stop-color="#FFFFFF"
         stop-opacity="0"
         id="stop5" />
    </linearGradient>
    <!-- Outer squircle clipping mask -->
    <clipPath
       id="squircleClip">
      <rect
         x="0"
         y="0"
         width="512"
         height="512"
         rx="112"
         ry="112"
         id="rect5" />
    </clipPath>
    <!-- Drop Shadows (SVG 1.1 compatible for Inkscape) -->
    <filter
       id="boardShadow"
       x="-0.096400002"
       y="-0.096400002"
       width="1.1928"
       height="1.2248">
      <feGaussianBlur
         in="SourceAlpha"
         stdDeviation="10.8"
         result="blur"
         id="feGaussianBlur5" />
      <feOffset
         in="blur"
         dx="0"
         dy="9.6"
         result="offsetBlur"
         id="feOffset5" />
      <feFlood
         flood-color="#000000"
         flood-opacity="0.18"
         result="offsetColor"
         id="feFlood5" />
      <feComposite
         in="offsetColor"
         in2="offsetBlur"
         operator="in"
         result="offsetShadow"
         id="feComposite5" />
      <feMerge
         id="feMerge6">
        <feMergeNode
           in="offsetShadow"
           id="feMergeNode5" />
        <feMergeNode
           in="SourceGraphic"
           id="feMergeNode6" />
      </feMerge>
    </filter>
    <filter
       id="pieceShadow"
       x="-0.22662417"
       y="-0.15531646"
       width="1.4532483"
       height="1.3865823">
      <feGaussianBlur
         in="SourceAlpha"
         stdDeviation="4.8"
         result="blur"
         id="feGaussianBlur6" />
      <feOffset
         in="blur"
         dx="0"
         dy="6.0"
         result="offsetBlur"
         id="feOffset6" />
      <feFlood
         flood-color="#000000"
         flood-opacity="0.21"
         result="offsetColor"
         id="feFlood6" />
      <feComposite
         in="offsetColor"
         in2="offsetBlur"
         operator="in"
         result="offsetShadow"
         id="feComposite6" />
      <feMerge
         id="feMerge8">
        <feMergeNode
           in="offsetShadow"
           id="feMergeNode7" />
        <feMergeNode
           in="SourceGraphic"
           id="feMergeNode8" />
      </feMerge>
    </filter>
  </defs>
  <!-- Main Background Plate -->
  <rect
     id="bg-plate"
     width="512"
     height="512"
     fill="url(#bgGrad)" />
  <!-- Subtle Inner Border Glow -->
  <!-- 1. WOODEN BOARD -->
  <g
     id="board-group"
     filter="url(#boardShadow)"
     transform="translate(256, 256) scale(1.00) rotate(0) translate(-150, -150)">
    <!-- Main Wood Board Plate -->
    <rect
       id="wood-board-plate"
       width="300"
       height="300"
       rx="40"
       fill="#D29C54"
       stroke="#9E6E34"
       stroke-width="6" />
    <!-- Wood Board Inset Accent -->
    <rect
       id="wood-board-inset"
       x="12"
       y="12"
       width="276"
       height="276"
       rx="28"
       stroke="#E0B272"
       stroke-width="3"
       stroke-opacity="0.7"
       fill="none" />
    <g
       id="wood-grain-paths"
       stroke="#DFB47B"
       stroke-width="2.5"
       stroke-linecap="round"
       stroke-opacity="0.45"
       fill="none">
      <path
         d="M 20,40 C 80,38 120,45 180,42 C 220,40 250,46 280,44"
         id="path8" />
      <path
         d="M 25,120 C 70,115 110,125 150,118 C 190,112 240,122 275,116"
         id="path9" />
      <path
         d="M 15,210 C 90,215 140,202 200,208 C 230,211 260,204 285,206"
         id="path10" />
      <path
         d="M 40,270 C 100,265 160,274 210,268 C 240,265 265,271 275,269"
         id="path11" />
      <path
         d="M 70,75 C 95,78 105,85 110,95"
         id="path12" />
      <path
         d="M 220,160 C 200,165 190,180 195,195"
         id="path13" />
    </g>
    <g
       id="board-grid-pattern">
      <rect
         x="25"
         y="25"
         width="62.5"
         height="62.5"
         fill="#000000"
         fill-opacity="0.08"
         id="rect13" />
      <rect
         x="150"
         y="25"
         width="62.5"
         height="62.5"
         fill="#000000"
         fill-opacity="0.08"
         id="rect14" />
      <rect
         x="87.5"
         y="87.5"
         width="62.5"
         height="62.5"
         fill="#000000"
         fill-opacity="0.08"
         id="rect15" />
      <rect
         x="212.5"
         y="87.5"
         width="62.5"
         height="62.5"
         fill="#000000"
         fill-opacity="0.08"
         id="rect16" />
      <rect
         x="25"
         y="150"
         width="62.5"
         height="62.5"
         fill="#000000"
         fill-opacity="0.08"
         id="rect17" />
      <rect
         x="150"
         y="150"
         width="62.5"
         height="62.5"
         fill="#000000"
         fill-opacity="0.08"
         id="rect18" />
      <rect
         x="87.5"
         y="212.5"
         width="62.5"
         height="62.5"
         fill="#000000"
         fill-opacity="0.08"
         id="rect19" />
      <rect
         x="212.5"
         y="212.5"
         width="62.5"
         height="62.5"
         fill="#000000"
         fill-opacity="0.08"
         id="rect20" />
      <g
         stroke="#7C521F"
         stroke-width="2.5"
         stroke-opacity="0.45"
         id="g25">
        <line
           x1="87.5"
           y1="25"
           x2="87.5"
           y2="275"
           id="line20" />
        <line
           x1="150"
           y1="25"
           x2="150"
           y2="275"
           id="line21" />
        <line
           x1="212.5"
           y1="25"
           x2="212.5"
           y2="275"
           id="line22" />
        <line
           x1="25"
           y1="87.5"
           x2="275"
           y2="87.5"
           id="line23" />
        <line
           x1="25"
           y1="150"
           x2="275"
           y2="150"
           id="line24" />
        <line
           x1="25"
           y1="212.5"
           x2="275"
           y2="212.5"
           id="line25" />
      </g>
    </g>
  </g>
  <!-- 2. COLORFUL MEEPLE FIGURES -->
  <!-- Meeple 1 (Left Piece) -->
  <g
     id="meeple-1-group"
     filter="url(#pieceShadow)"
     transform="translate(180, 210) scale(0.90) rotate(-12) translate(-50, -85)">
    <path
       d="M 50,12 C 55.5,12 60,16.5 60,22 C 60,27.5 55.5,32 50,32 C 44.5,32 40,27.5 40,22 C 40,16.5 44.5,12 50,12 Z M 50,36 C 58,36 62,40 68,48 C 72,53 76,64 77,71 C 77.5,74.5 75,76 72,75 C 67,73.5 63,71 61,68 L 61,86 C 61,89.5 58,91 55,91 C 52,91 50.5,88 50,85 C 49.5,88 48,91 45,91 C 42,91 39,89.5 39,86 L 39,68 C 37,71 33,73.5 28,75 C 25,76 22.5,74.5 23,71 C 24,64 28,53 32,48 C 38,40 42,36 50,36 Z"
       fill="#EF4444"
       stroke="#000000"
       stroke-width="1.5"
       stroke-opacity="0.08"
       id="path25" />
    <path
       d="M 38,49 C 41,46 46,44 50,44 C 54,44 59,46 62,49 C 64,51 64.5,53 62,54 C 59,53 54,51 50,51 C 46,51 41,53 38,54 C 35.5,53 36,51 38,49 Z"
       fill="#FFFFFF"
       fill-opacity="0.18"
       id="path26" />
  </g>
  <!-- Meeple 2 (Right Piece) -->
  <g
     id="meeple-2-group"
     filter="url(#pieceShadow)"
     transform="translate(330, 290) scale(0.80) rotate(15) translate(-50, -85)">
    <path
       d="M 50,12 C 55.5,12 60,16.5 60,22 C 60,27.5 55.5,32 50,32 C 44.5,32 40,27.5 40,22 C 40,16.5 44.5,12 50,12 Z M 50,36 C 58,36 62,40 68,48 C 72,53 76,64 77,71 C 77.5,74.5 75,76 72,75 C 67,73.5 63,71 61,68 L 61,86 C 61,89.5 58,91 55,91 C 52,91 50.5,88 50,85 C 49.5,88 48,91 45,91 C 42,91 39,89.5 39,86 L 39,68 C 37,71 33,73.5 28,75 C 25,76 22.5,74.5 23,71 C 24,64 28,53 32,48 C 38,40 42,36 50,36 Z"
       fill="#3B82F6"
       stroke="#000000"
       stroke-width="1.5"
       stroke-opacity="0.08"
       id="path27" />
    <path
       d="M 38,49 C 41,46 46,44 50,44 C 54,44 59,46 62,49 C 64,51 64.5,53 62,54 C 59,53 54,51 50,51 C 46,51 41,53 38,54 C 35.5,53 36,51 38,49 Z"
       fill="#FFFFFF"
       fill-opacity="0.18"
       id="path28" />
  </g>
  <!-- 3. WHITE DIE -->
  <g
     id="die-group"
     filter="url(#pieceShadow)"
     transform="translate(256, 260) scale(1.00) rotate(8) translate(-40, -40)">
    <rect
       x="0"
       y="4"
       width="80"
       height="80"
       rx="12"
       fill="#E5E7EB"
       id="rect28" />
    <rect
       width="80"
       height="80"
       rx="12"
       fill="#FFFFFF"
       stroke="#000000"
       stroke-width="1.5"
       stroke-opacity="0.06"
       id="rect29" />
    <rect
       x="1"
       y="1"
       width="78"
       height="78"
       rx="11"
       stroke="#FFFFFF"
       stroke-width="1"
       stroke-opacity="0.4"
       fill="none"
       id="rect30" />
    <circle
       cx="40"
       cy="40"
       r="6"
       fill="#1F2937"
       id="circle30" />
    <circle
       cx="22"
       cy="22"
       r="6"
       fill="#1F2937"
       id="circle31" />
    <circle
       cx="58"
       cy="58"
       r="6"
       fill="#1F2937"
       id="circle32" />
    <circle
       cx="58"
       cy="22"
       r="6"
       fill="#1F2937"
       id="circle33" />
    <circle
       cx="22"
       cy="58"
       r="6"
       fill="#1F2937"
       id="circle34" />
  </g>
  <!-- Glass Reflection overlay -->
  <!-- Precise Crisp Edge Border Overlay -->
  <rect
     x="1.5"
     y="1.5"
     width="509"
     height="509"
     stroke="#FFFFFF"
     stroke-width="3"
     stroke-opacity="0.1"
     pointer-events="none"
     id="rect34" />
</svg>
